# xmcd
#
# Track frame offsets:
#	150
#	4224
#	13337
#	23905
#	33789
#	47361
#	62532
#	72856
#	87589
#	98259
#	107197
#	120131
#	133478
#	144997
#	153494
#	165140
#	178023
#	189990
#	198433
#
# Disc length: 2797 seconds
#
# Revision: 0
# Processed by: cddbd v1.5.2PL0 Copyright (c) Steve Scherf et al.
# Submitted via: EasyCDDAExtractor 11.1.0.1
#
DISCID=ec0aeb13
DTITLE=Bosák Jiří - Pivní pěna - Bosákovy sprosté písně z kadibudky A-J [CD1)
DYEAR=2007
DGENRE=Country
TTITLE0=A já sám
TTITLE1=Andulko šafářova
TTITLE2=Anežka Böhmová
TTITLE3=Babinskej
TTITLE4=Blaženka
TTITLE5=Božena
TTITLE6=Černý muž
TTITLE7=Červená sukýnka
TTITLE8=Dej nám Pánbu dobrej den
TTITLE9=Dejme mi si, máterinko
TTITLE10=Dlouhej nos
TTITLE11=Dudáček
TTITLE12=Hej, pane šenkýři
TTITLE13=Ho, ho, Watanay
TTITLE14=Hornická
TTITLE15=Chtěl jsi vidět
TTITLE16=Chytila patrola
TTITLE17=Chytili jsme lososa
TTITLE18=Já jsem lokaj od Baronky
EXTD=
EXTT0=
EXTT1=
EXTT2=
EXTT3=
EXTT4=
EXTT5=
EXTT6=
EXTT7=
EXTT8=
EXTT9=
EXTT10=
EXTT11=
EXTT12=
EXTT13=
EXTT14=
EXTT15=
EXTT16=
EXTT17=
EXTT18=
PLAYORDER=
